<svg version="1.0" xmlns="http://www.w3.org/2000/svg"
 width="512.000000pt" height="512.000000pt" viewBox="0 0 512.000000 512.000000"
 preserveAspectRatio="xMidYMid meet">

<g transform="translate(0.000000,512.000000) scale(0.100000,-0.100000)"
fill="#9C80E7" stroke="none">
<path d="M2290 4141 c-135 -44 -227 -158 -237 -295 -17 -222 152 -459 435
-606 57 -30 65 -32 100 -22 65 20 223 130 302 211 238 244 236 563 -5 689 -44
24 -62 27 -145 27 -80 0 -102 -4 -137 -23 l-43 -22 -42 22 c-46 23 -180 35
-228 19z m156 -141 c15 -6 40 -22 56 -35 16 -14 42 -25 58 -25 16 0 42 11 58
25 63 53 148 61 218 20 187 -110 79 -414 -208 -587 l-68 -40 -67 40 c-239 143
-362 383 -273 528 44 69 147 104 226 74z"/>
<path d="M895 3606 c-25 -25 -25 -27 -25 -196 l0 -170 -172 0 c-146 0 -179 -3
-213 -19 -51 -23 -111 -89 -124 -138 -6 -21 -11 -122 -11 -224 l0 -187 -46
-11 c-120 -30 -215 -108 -267 -219 -29 -61 -32 -76 -32 -162 1 -102 16 -151
73 -234 40 -59 129 -120 206 -142 l66 -19 0 -175 c0 -154 3 -180 21 -220 27
-60 54 -88 114 -116 46 -22 62 -24 218 -24 l167 0 0 -170 c0 -157 2 -172 20
-190 19 -19 33 -20 339 -20 l320 0 20 26 c21 26 21 36 21 510 l0 484 970 0
970 0 0 -484 c0 -474 0 -484 21 -510 l20 -26 320 0 c306 0 320 1 339 20 18 18
20 33 20 190 l0 170 168 0 c155 0 171 2 217 24 60 28 87 56 114 116 18 40 21
66 21 220 l0 175 61 18 c121 35 202 106 257 224 23 50 27 71 27 153 0 88 -3
101 -33 162 -56 114 -147 189 -266 219 l-46 11 0 188 c0 210 -8 251 -63 309
-60 63 -91 71 -284 71 l-173 0 0 170 c0 169 0 171 -25 196 l-25 25 -315 -3
c-286 -3 -316 -5 -332 -21 -17 -16 -18 -53 -21 -507 l-3 -490 -969 0 -969 0
-3 490 c-3 454 -4 491 -21 507 -16 16 -46 18 -332 21 l-315 3 -25 -25z m553
-1308 l2 -1188 -220 0 -220 0 0 1190 0 1190 218 -2 217 -3 3 -1187z m2662 2
l0 -1190 -220 0 -220 0 0 1190 0 1190 220 0 220 0 0 -1190z m-3240 -5 l0 -805
-161 0 -161 0 -29 29 -29 29 0 742 c0 634 2 745 15 770 8 15 20 30 27 33 7 3
86 6 176 6 l162 1 0 -805z m3715 799 c45 -18 45 -19 45 -804 l0 -742 -29 -29
-29 -29 -161 0 -161 0 0 805 0 805 159 0 c88 0 167 -3 176 -6z m-4235 -815 l0
-250 -22 7 c-180 55 -245 263 -128 406 26 31 117 88 142 88 4 0 8 -113 8 -251z
m4507 215 c82 -47 130 -143 120 -239 -11 -106 -79 -187 -184 -219 l-23 -7 0
251 0 251 23 -6 c12 -4 41 -18 64 -31z m-1327 -194 l0 -170 -970 0 -970 0 0
170 0 170 970 0 970 0 0 -170z"/>
</g>
</svg>