<svg version="1.0" xmlns="http://www.w3.org/2000/svg"
 width="512.000000pt" height="512.000000pt" viewBox="0 0 512.000000 512.000000"
 preserveAspectRatio="xMidYMid meet">

<g transform="translate(0.000000,512.000000) scale(0.100000,-0.100000)"
fill="#040307" stroke="none">
<path d="M2515 5109 c-446 -28 -857 -101 -1020 -182 -114 -56 -198 -155 -235
-275 -46 -147 -44 -318 6 -630 l27 -171 30 -7 c82 -18 157 4 203 59 44 52 46
69 24 196 -25 150 -26 147 9 182 38 38 88 40 123 4 20 -20 29 -47 46 -146 24
-139 51 -195 112 -235 35 -23 47 -26 104 -22 36 2 69 7 73 11 4 4 -8 72 -27
150 -68 288 -67 283 -44 314 40 54 107 55 145 3 10 -14 37 -106 61 -205 43
-186 55 -212 110 -241 53 -28 144 -9 204 43 l21 18 -65 248 c-40 155 -62 256
-58 272 11 42 44 65 98 65 39 0 59 -8 117 -45 159 -103 296 -148 380 -125 64
17 123 81 150 163 25 75 48 97 102 97 30 0 43 -7 64 -32 23 -27 26 -38 21 -72
-11 -73 -70 -177 -133 -237 -33 -30 -66 -58 -76 -64 -14 -9 4 -37 133 -209 82
-110 158 -221 170 -248 39 -90 43 -146 37 -502 -8 -518 11 -755 89 -1071 60
-242 112 -421 191 -655 36 -107 65 -210 66 -227 1 -37 -31 -78 -68 -87 -42
-11 -73 12 -142 101 -199 256 -455 525 -643 675 -225 179 -390 261 -600 299
-96 17 -418 17 -525 0 -315 -50 -589 -141 -896 -297 -158 -81 -177 -84 -219
-39 -30 32 -30 89 1 121 30 32 346 190 466 233 61 22 90 37 86 45 -76 125
-244 315 -359 407 -76 60 -243 148 -444 234 -85 37 -209 91 -276 121 -67 30
-126 54 -133 54 -8 0 -10 -399 -9 -1597 l3 -1598 237 -3 236 -2 134 36 c136
37 399 117 498 152 l55 19 -40 24 c-185 109 -402 277 -527 407 -59 60 -68 75
-68 106 0 52 36 86 89 86 22 0 43 -5 46 -10 4 -6 53 -53 110 -104 385 -348
824 -563 1310 -642 153 -25 476 -25 635 -1 154 24 978 233 1590 404 402 111
362 94 580 259 116 89 195 156 201 171 7 18 1 68 -22 187 -158 828 -355 1552
-541 1991 -222 521 -627 1228 -958 1670 -167 223 -257 313 -335 334 -114 29
-436 38 -730 20z m-1060 -4145 c199 -243 419 -355 757 -384 145 -13 306 -1
501 37 159 31 182 28 210 -28 14 -29 15 -42 6 -68 -13 -38 -44 -55 -135 -75
-479 -107 -904 -54 -1212 151 -143 95 -293 258 -292 317 1 30 24 67 51 82 37
22 80 9 114 -32z"/>
<path d="M2622 4178 c33 -123 43 -140 102 -170 32 -16 53 -19 105 -15 70 5
151 32 151 50 0 5 -17 33 -39 61 -21 28 -41 61 -45 74 -7 22 -15 25 -91 37
-32 5 -133 41 -202 71 -7 4 0 -37 19 -108z"/>
<!-- <path d="M2157 3459 c-43 -25 -47 -53 -47 -354 0 -315 3 -331 59 -355 56 -23
112 10 125 72 10 52 7 540 -5 580 -15 56 -83 85 -132 57z"/>
<path d="M1455 3102 c-28 -6 -62 -39 -70 -69 -8 -35 90 -329 121 -360 43 -43
115 -26 140 33 14 33 12 42 -37 192 -28 86 -60 167 -71 178 -21 23 -50 32 -83
26z"/>
<path d="M2915 3102 c-44 -9 -65 -45 -116 -200 -55 -168 -56 -197 -12 -232 46
-36 112 -20 136 34 30 64 100 291 99 319 -1 51 -53 89 -107 79z"/> -->
</g>
</svg>